<svg width="111" height="109" viewBox="0 0 111 109" fill="none" xmlns="http://www.w3.org/2000/svg">
<path fill-rule="evenodd" clip-rule="evenodd" d="M89.024 7.54775C86.8976 7.54775 85.1718 5.85952 85.1718 3.77937C85.1718 1.69922 86.8976 0.0109863 89.024 0.0109863H96.7282C104.53 0.0109863 110.853 6.19616 110.853 13.8284V21.3652C110.853 23.4453 109.127 25.1335 107.001 25.1335C104.874 25.1335 103.148 23.4453 103.148 21.3652V13.8284C103.148 10.3615 100.272 7.54775 96.7282 7.54775H89.024Z" fill="#AFC2F2"/>
<path fill-rule="evenodd" clip-rule="evenodd" d="M89.024 108.038C86.8976 108.038 85.1718 106.35 85.1718 104.27C85.1718 102.189 86.8976 100.501 89.024 100.501H96.7282C100.272 100.501 103.148 97.6875 103.148 94.2206V86.6838C103.148 84.6036 104.874 82.9154 107.001 82.9154C109.127 82.9154 110.853 84.6036 110.853 86.6838V94.2206C110.853 101.853 104.53 108.038 96.7282 108.038H89.024Z" fill="#AFC2F2"/>
<path fill-rule="evenodd" clip-rule="evenodd" d="M22.2538 0.0109863C24.3802 0.0109863 26.106 1.69922 26.106 3.77937C26.106 5.85952 24.3802 7.54775 22.2538 7.54775H14.5496C11.0056 7.54775 8.12939 10.3615 8.12939 13.8284V21.3652C8.12939 23.4453 6.40364 25.1335 4.27726 25.1335C2.15089 25.1335 0.42514 23.4453 0.42514 21.3652V13.8284C0.42514 6.19616 6.74776 0.0109863 14.5496 0.0109863H22.2538Z" fill="#AFC2F2"/>
<path fill-rule="evenodd" clip-rule="evenodd" d="M22.2538 100.501C24.3802 100.501 26.106 102.189 26.106 104.27C26.106 106.35 24.3802 108.038 22.2538 108.038H14.5496C6.74776 108.038 0.42514 101.853 0.42514 94.2206V86.6838C0.42514 84.6036 2.15089 82.9154 4.27726 82.9154C6.40364 82.9154 8.12939 84.6036 8.12939 86.6838V94.2206C8.12939 97.6875 11.0056 100.501 14.5496 100.501H22.2538Z" fill="#AFC2F2"/>
<path fill-rule="evenodd" clip-rule="evenodd" d="M95.4442 21.3651V36.4386C95.4442 38.1017 94.7662 39.6995 93.5643 40.8803C92.3573 42.056 90.7292 42.7193 89.024 42.7193H22.2538C20.5486 42.7193 18.9205 42.056 17.7135 40.8803C16.5116 39.6995 15.8336 38.1017 15.8336 36.4386V21.3651C15.8336 19.702 16.5116 18.1042 17.7135 16.9234C18.9205 15.7477 20.5486 15.0845 22.2538 15.0845H89.024C90.7292 15.0845 92.3573 15.7477 93.5643 16.9234C94.7662 18.1042 95.4442 19.697 95.4442 21.3651Z" fill="#AFC2F2"/>
<path fill-rule="evenodd" clip-rule="evenodd" d="M51.7868 56.5367V86.6838C51.7868 90.1507 48.9105 92.9644 45.3666 92.9644H22.2538C18.7099 92.9644 15.8336 90.1507 15.8336 86.6838V56.5367C15.8336 53.0698 18.7099 50.2561 22.2538 50.2561H45.3666C48.9105 50.2561 51.7868 53.0698 51.7868 56.5367Z" fill="#AFC2F2"/>
<path fill-rule="evenodd" clip-rule="evenodd" d="M95.4442 56.5367V86.6838C95.4442 90.1507 92.5679 92.9644 89.024 92.9644H65.9112C62.3673 92.9644 59.491 90.1507 59.491 86.6838V56.5367C59.491 53.0698 62.3673 50.2561 65.9112 50.2561H89.024C92.5679 50.2561 95.4442 53.0698 95.4442 56.5367Z" fill="#AFC2F2"/>
<path fill-rule="evenodd" clip-rule="evenodd" d="M103.148 33.9266C103.148 31.8464 104.874 30.1582 107.001 30.1582C109.127 30.1582 110.853 31.8464 110.853 33.9266V38.9511C110.853 41.0312 109.127 42.7195 107.001 42.7195C104.874 42.7195 103.148 41.0312 103.148 38.9511V33.9266Z" fill="#AFC2F2"/>
<path fill-rule="evenodd" clip-rule="evenodd" d="M35.0943 7.54775C32.9679 7.54775 31.2421 5.85951 31.2421 3.77937C31.2421 1.69922 32.9679 0.0109863 35.0943 0.0109863H40.2304C42.3568 0.0109863 44.0825 1.69922 44.0825 3.77937C44.0825 5.85951 42.3568 7.54775 40.2304 7.54775H35.0943Z" fill="#AFC2F2"/>
<path fill-rule="evenodd" clip-rule="evenodd" d="M0.42514 33.9266C0.42514 31.8464 2.15089 30.1582 4.27726 30.1582C6.40364 30.1582 8.12939 31.8464 8.12939 33.9266V38.9511C8.12939 41.0312 6.40364 42.7195 4.27726 42.7195C2.15089 42.7195 0.42514 41.0312 0.42514 38.9511V33.9266Z" fill="#AFC2F2"/>
<path fill-rule="evenodd" clip-rule="evenodd" d="M35.0943 108.038C32.9679 108.038 31.2421 106.35 31.2421 104.269C31.2421 102.189 32.9679 100.501 35.0943 100.501H40.2304C42.3568 100.501 44.0825 102.189 44.0825 104.269C44.0825 106.35 42.3568 108.038 40.2304 108.038H35.0943Z" fill="#AFC2F2"/>
<path fill-rule="evenodd" clip-rule="evenodd" d="M103.148 51.5123C103.148 49.4321 104.874 47.7439 107.001 47.7439C109.127 47.7439 110.853 49.4321 110.853 51.5123V56.5368C110.853 58.6169 109.127 60.3052 107.001 60.3052C104.874 60.3052 103.148 58.6169 103.148 56.5368V51.5123Z" fill="#AFC2F2"/>
<path fill-rule="evenodd" clip-rule="evenodd" d="M53.0708 7.54775C50.9444 7.54775 49.2187 5.85951 49.2187 3.77937C49.2187 1.69922 50.9444 0.0109863 53.0708 0.0109863H58.207C60.3334 0.0109863 62.0591 1.69922 62.0591 3.77937C62.0591 5.85951 60.3334 7.54775 58.207 7.54775H53.0708Z" fill="#AFC2F2"/>
<path fill-rule="evenodd" clip-rule="evenodd" d="M0.42514 51.5123C0.42514 49.4321 2.15089 47.7439 4.27726 47.7439C6.40364 47.7439 8.12939 49.4321 8.12939 51.5123V56.5368C8.12939 58.6169 6.40364 60.3052 4.27726 60.3052C2.15089 60.3052 0.42514 58.6169 0.42514 56.5368V51.5123Z" fill="#AFC2F2"/>
<path fill-rule="evenodd" clip-rule="evenodd" d="M53.0708 108.038C50.9444 108.038 49.2187 106.35 49.2187 104.269C49.2187 102.189 50.9444 100.501 53.0708 100.501H58.207C60.3334 100.501 62.0591 102.189 62.0591 104.269C62.0591 106.35 60.3334 108.038 58.207 108.038H53.0708Z" fill="#AFC2F2"/>
<path fill-rule="evenodd" clip-rule="evenodd" d="M103.148 69.098C103.148 67.0178 104.874 65.3296 107.001 65.3296C109.127 65.3296 110.853 67.0178 110.853 69.098V74.1225C110.853 76.2026 109.127 77.8909 107.001 77.8909C104.874 77.8909 103.148 76.2026 103.148 74.1225V69.098Z" fill="#AFC2F2"/>
<path fill-rule="evenodd" clip-rule="evenodd" d="M71.0474 7.54775C68.921 7.54775 67.1953 5.85951 67.1953 3.77937C67.1953 1.69922 68.921 0.0109863 71.0474 0.0109863H76.1836C78.3099 0.0109863 80.0357 1.69922 80.0357 3.77937C80.0357 5.85951 78.3099 7.54775 76.1836 7.54775H71.0474Z" fill="#AFC2F2"/>
<path fill-rule="evenodd" clip-rule="evenodd" d="M0.42514 69.098C0.42514 67.0178 2.15089 65.3296 4.27726 65.3296C6.40364 65.3296 8.12939 67.0178 8.12939 69.098V74.1225C8.12939 76.2026 6.40364 77.8909 4.27726 77.8909C2.15089 77.8909 0.42514 76.2026 0.42514 74.1225V69.098Z" fill="#AFC2F2"/>
<path fill-rule="evenodd" clip-rule="evenodd" d="M71.0474 108.038C68.921 108.038 67.1953 106.35 67.1953 104.269C67.1953 102.189 68.921 100.501 71.0474 100.501H76.1836C78.3099 100.501 80.0357 102.189 80.0357 104.269C80.0357 106.35 78.3099 108.038 76.1836 108.038H71.0474Z" fill="#AFC2F2"/>
</svg>
