<svg width="112" height="125" viewBox="0 0 112 125" fill="none" xmlns="http://www.w3.org/2000/svg">
<path fill-rule="evenodd" clip-rule="evenodd" d="M11.4762 50.6069L33.301 29.1891C32.9985 28.2628 32.8336 27.2626 32.8336 26.219C32.8336 21.4473 36.2835 17.5794 40.5388 17.5794C44.713 17.5794 48.1115 21.3009 48.2403 25.9462L65.4898 32.7177C66.903 30.8575 69.0072 29.6775 71.3572 29.6775C72.6831 29.6775 73.9307 30.0531 75.0201 30.7144L94.9062 11.6635C94.6241 10.7652 94.4701 9.79933 94.4701 8.79289C94.4701 4.0215 97.9199 0.15332 102.175 0.15332C106.431 0.15332 109.881 4.0215 109.881 8.79289C109.881 13.5648 106.431 17.433 102.175 17.433C100.85 17.433 99.6017 17.0574 98.5126 16.3961L78.6265 35.4471C78.9086 36.3453 79.0626 37.3112 79.0626 38.3176C79.0626 43.089 75.6127 46.9572 71.3569 46.9572C67.183 46.9572 63.7847 43.2357 63.6559 38.5907L46.4063 31.8192C44.9929 33.6794 42.889 34.8593 40.5388 34.8593C39.2448 34.8593 38.0258 34.5012 36.9551 33.8692L15.1304 55.287C15.4328 56.2131 15.5977 57.2136 15.5977 58.2572C15.5977 63.0291 12.1479 66.8968 7.89207 66.8968C3.63696 66.8963 0.187134 63.0286 0.187134 58.2567C0.187134 53.4848 3.63696 49.6171 7.8923 49.6171C9.18628 49.6171 10.4056 49.975 11.4762 50.6069ZM96.3138 34.495C94.3978 34.495 92.8347 36.2473 92.8347 38.3959V118.009C92.8347 120.157 94.3978 121.91 96.3138 121.91H108.038C109.954 121.91 111.517 120.157 111.517 118.009V38.3959C111.517 36.2473 109.954 34.495 108.038 34.495H96.3138ZM65.4952 66.3085C63.5789 66.3085 62.0164 68.0608 62.0164 70.2095V118.824C62.0164 120.973 63.5792 122.725 65.4952 122.725H77.2196C79.1359 122.725 80.6984 120.973 80.6984 118.824C80.6984 102.62 80.6984 86.4146 80.6984 70.2095C80.6984 68.0608 79.1359 66.3085 77.2196 66.3085C73.3112 66.3085 69.4035 66.3085 65.4952 66.3085ZM34.6771 54.8873C32.7606 54.8873 31.1978 56.6396 31.1978 58.7883V119.64C31.1978 121.788 32.7603 123.541 34.6771 123.541H46.401C48.317 123.541 49.88 121.788 49.88 119.64V58.7883C49.88 56.6396 48.317 54.8873 46.401 54.8873H34.6771ZM3.85869 88.4659H15.5824C17.4987 88.4659 19.0617 90.2182 19.0617 92.3669V120.455C19.0617 122.604 17.4987 124.356 15.5824 124.356H3.85869C1.94243 124.356 0.379409 122.604 0.379409 120.455V92.3669C0.379641 90.218 1.94266 88.4659 3.85869 88.4659Z" fill="#AFC2F2"/>
</svg>
