<svg width="114" height="113" viewBox="0 0 114 113" fill="none" xmlns="http://www.w3.org/2000/svg">
<path fill-rule="evenodd" clip-rule="evenodd" d="M4.20815 0.27794C2.29079 0.469093 0.832246 2.0827 0.834965 4.00966V11.5024C0.842222 13.5721 2.52622 15.2494 4.59596 15.2414H109.494C111.553 15.2342 113.218 13.5613 113.226 11.5024V4.00966C113.218 1.95074 111.553 0.285162 109.494 0.27794H4.59596C4.46699 0.271286 4.33712 0.271286 4.20815 0.27794ZM8.32768 22.7415V78.9295C8.31974 81.01 10.0155 82.6984 12.096 82.6905H53.2986V90.871C48.9576 92.4272 45.8059 96.5644 45.8059 101.415C45.8059 107.578 50.8675 112.669 57.0303 112.669C63.1932 112.669 68.2914 107.578 68.2914 101.415C68.2914 96.5732 65.1275 92.4412 60.7913 90.8783V82.6905H102.001C104.082 82.6984 105.77 81.01 105.762 78.9295V22.7415H8.32768ZM64.5231 33.9805H79.5158C81.5962 33.9727 83.2847 35.6611 83.2768 37.7415V52.7343C83.1684 57.6198 75.8925 57.6198 75.7841 52.7343V46.7781L59.6864 62.8538C58.2252 64.306 55.8648 64.306 54.4035 62.8538L49.5669 58.0099L37.201 70.3465C33.6916 74.4606 27.804 68.573 31.918 65.0636L46.9108 50.0782C48.3721 48.626 50.7325 48.626 52.1937 50.0782L57.0303 54.9148L70.4719 41.4732H64.5231C59.4145 41.5879 59.4145 33.8658 64.5231 33.9805ZM57.0303 97.6759C59.1438 97.6759 60.7913 99.3015 60.7913 101.415C60.7913 103.528 59.1438 105.176 57.0303 105.176C54.9169 105.176 53.2986 103.528 53.2986 101.415C53.2986 99.3015 54.9169 97.6759 57.0303 97.6759Z" fill="#AFC2F2"/>
</svg>
