<svg width="20" height="20" viewBox="0 0 20 20" fill="none" xmlns="http://www.w3.org/2000/svg">
<path d="M20 16.2721V7.90133C20 7.57773 19.7377 7.31539 19.4141 7.31539H12.8478C12.5242 7.31539 12.2619 7.57773 12.2619 7.90133V13.5084H10.5998V6.8677C10.5998 6.5441 10.3375 6.28176 10.0139 6.28176H7.73812V0.585938C7.73812 0.262344 7.47577 0 7.15218 0H0.585968C0.262374 0 3.05176e-05 0.262344 3.05176e-05 0.585938V8.95672H7.73812V7.45363H9.42796V14.0944C9.42796 14.418 9.6903 14.6804 10.0139 14.6804H12.2619V16.2721H20ZM4.69425 7.36492H3.04386C2.72026 7.36492 2.45792 7.10258 2.45792 6.77898C2.45792 6.45539 2.72026 6.19305 3.04386 6.19305H4.69425C5.01784 6.19305 5.28019 6.45539 5.28019 6.77898C5.28019 7.10258 5.01788 7.36492 4.69425 7.36492ZM4.69425 3.93555H3.04386C2.72026 3.93555 2.45792 3.6732 2.45792 3.34961C2.45792 3.02602 2.72026 2.76367 3.04386 2.76367H4.69425C5.01784 2.76367 5.28019 3.02602 5.28019 3.34961C5.28019 3.6732 5.01788 3.93555 4.69425 3.93555ZM16.9562 14.6804H15.3058C14.9822 14.6804 14.7198 14.418 14.7198 14.0944C14.7198 13.7708 14.9822 13.5085 15.3058 13.5085H16.9562C17.2798 13.5085 17.5421 13.7708 17.5421 14.0944C17.5421 14.418 17.2798 14.6804 16.9562 14.6804ZM16.9562 11.2509H15.3058C14.9822 11.2509 14.7198 10.9886 14.7198 10.665C14.7198 10.3414 14.9822 10.0791 15.3058 10.0791H16.9562C17.2798 10.0791 17.5421 10.3414 17.5421 10.665C17.5421 10.9886 17.2798 11.2509 16.9562 11.2509Z" fill="#527BDD"/>
<path d="M12.2619 17.4441V19.4141C12.2619 19.7377 12.5242 20.0001 12.8478 20.0001H19.4141C19.7377 20.0001 20 19.7377 20 19.4141V17.4441H12.2619Z" fill="#527BDD"/>
<path d="M3.05176e-05 10.1287V12.0987C3.05176e-05 12.4223 0.262374 12.6846 0.585968 12.6846H7.15218C7.47577 12.6846 7.73812 12.4223 7.73812 12.0987V10.1287H3.05176e-05Z" fill="#527BDD"/>
</svg>
