<svg width="20" height="20" viewBox="0 0 20 20" fill="none" xmlns="http://www.w3.org/2000/svg">
<g clip-path="url(#clip0_263_207)">
<g clip-path="url(#clip1_263_207)">
<path d="M18.5417 0H1.45836C0.654197 0 3.05176e-05 0.654167 3.05176e-05 1.45833V3.54167C3.05176e-05 4.34583 0.654197 5 1.45836 5H18.5417C19.3459 5 20 4.34583 20 3.54167V1.45833C20 0.654167 19.3459 0 18.5417 0Z" fill="#527BDD"/>
<path d="M1.45836 20.0001H7.70836C8.51253 20.0001 9.1667 19.3459 9.1667 18.5417V8.12508C9.1667 7.32091 8.51253 6.66675 7.70836 6.66675H1.45836C0.654197 6.66675 3.05176e-05 7.32091 3.05176e-05 8.12508V18.5417C3.05176e-05 19.3459 0.654197 20.0001 1.45836 20.0001Z" fill="#527BDD"/>
<path d="M18.5417 6.66675H12.2917C11.4875 6.66675 10.8334 7.32091 10.8334 8.12508V11.0417C10.8334 11.8459 11.4875 12.5001 12.2917 12.5001H18.5417C19.3459 12.5001 20 11.8459 20 11.0417V8.12508C20 7.32091 19.3459 6.66675 18.5417 6.66675Z" fill="#527BDD"/>
<path d="M18.5417 14.1667H12.2917C11.4875 14.1667 10.8334 14.8209 10.8334 15.6251V18.5417C10.8334 19.3459 11.4875 20.0001 12.2917 20.0001H18.5417C19.3459 20.0001 20 19.3459 20 18.5417V15.6251C20 14.8209 19.3459 14.1667 18.5417 14.1667Z" fill="#527BDD"/>
</g>
</g>
<defs>
<clipPath id="clip0_263_207">
<rect width="20" height="20" fill="white"/>
</clipPath>
<clipPath id="clip1_263_207">
<rect width="20" height="20" fill="white"/>
</clipPath>
</defs>
</svg>
