<svg width="20" height="21" viewBox="0 0 20 21" fill="none" xmlns="http://www.w3.org/2000/svg">
<path fill-rule="evenodd" clip-rule="evenodd" d="M13.6492 7.80008L11.8317 13.2551C11.7226 13.5817 11.8992 13.9359 12.2267 14.0451C12.5542 14.1542 12.9084 13.9776 13.0176 13.6501L14.8351 8.19508C14.9442 7.86842 14.7676 7.51425 14.4401 7.40508C14.1126 7.29592 13.7584 7.47258 13.6492 7.80008Z" fill="#527BDD"/>
<path fill-rule="evenodd" clip-rule="evenodd" d="M15.2401 9.34927L16.6159 10.7251L15.2401 12.1009C14.9959 12.3451 14.9959 12.7409 15.2401 12.9851C15.4842 13.2293 15.8801 13.2293 16.1242 12.9851L17.9417 11.1668C18.1859 10.9226 18.1859 10.5276 17.9417 10.2834L16.1242 8.46511C15.8801 8.22094 15.4842 8.22094 15.2401 8.46511C14.9959 8.70927 14.9959 9.10511 15.2401 9.34927Z" fill="#527BDD"/>
<path fill-rule="evenodd" clip-rule="evenodd" d="M10.5426 8.46511L8.72506 10.2834C8.48089 10.5276 8.48089 10.9226 8.72506 11.1668L10.5426 12.9851C10.7867 13.2293 11.1826 13.2293 11.4267 12.9851C11.6709 12.7409 11.6709 12.3451 11.4267 12.1009L10.0509 10.7251L11.4267 9.34927C11.6709 9.10511 11.6709 8.70927 11.4267 8.46511C11.1826 8.22094 10.7867 8.22094 10.5426 8.46511Z" fill="#527BDD"/>
<path fill-rule="evenodd" clip-rule="evenodd" d="M13.9584 13.4618L13.8076 13.9135C13.5534 14.6768 12.7267 15.0902 11.9634 14.836C11.5417 14.6952 11.2267 14.381 11.0726 13.9985C10.6709 14.0227 10.2609 13.881 9.95339 13.5743L8.13589 11.756C7.56589 11.1868 7.56589 10.2635 8.13589 9.69435L9.95339 7.87601C10.5226 7.30685 11.4467 7.30685 12.0159 7.87601C12.2726 8.13268 12.4134 8.46101 12.4392 8.79685L12.8592 7.53685C13.0309 7.02185 13.4617 6.66685 13.9584 6.56768V4.05851C13.9584 3.45101 13.7167 2.86768 13.2876 2.43768C12.8576 2.00851 12.2742 1.76685 11.6667 1.76685C9.63006 1.76685 6.20339 1.76685 4.16673 1.76685C3.55923 1.76685 2.97589 2.00851 2.54589 2.43768C2.11673 2.86768 1.87506 3.45101 1.87506 4.05851V17.3918C1.87506 17.9993 2.11673 18.5827 2.54589 19.0127C2.97589 19.4418 3.55923 19.6835 4.16673 19.6835H11.6667C12.2742 19.6835 12.8576 19.4418 13.2876 19.0127C13.7167 18.5827 13.9584 17.9993 13.9584 17.3918V13.4618ZM6.25006 17.6002H9.58339C9.92839 17.6002 10.2084 17.3202 10.2084 16.9752C10.2084 16.6302 9.92839 16.3502 9.58339 16.3502H6.25006C5.90506 16.3502 5.62506 16.6302 5.62506 16.9752C5.62506 17.3202 5.90506 17.6002 6.25006 17.6002ZM11.2501 3.01685H4.58339L5.10256 4.31435C5.29256 4.78935 5.75173 5.10018 6.26339 5.10018H9.57006C10.0817 5.10018 10.5409 4.78935 10.7309 4.31435L11.2501 3.01685Z" fill="#527BDD"/>
</svg>
