<svg width="14" height="20" viewBox="0 0 14 20" fill="none" xmlns="http://www.w3.org/2000/svg">
<path d="M12.2942 10.5883C11.6444 10.5883 11.1177 11.1151 11.1177 11.7648C11.1177 11.1151 10.591 10.5883 9.94123 10.5883C9.2915 10.5883 8.76476 11.1151 8.76476 11.7648C8.76476 11.1151 8.23801 10.5883 7.58829 10.5883C6.93856 10.5883 6.41182 11.1151 6.41182 11.7648V6.47066C6.41182 5.82093 5.88507 5.29419 5.23535 5.29419C4.58562 5.29419 4.05888 5.82093 4.05888 6.47066V10.5883V13.5295H3.98888L2.88241 12.0542C2.58311 11.5618 1.89346 11.4437 1.38135 11.7851C0.894679 12.1096 0.725777 12.7456 0.987346 13.2687L3.57115 19.0246C3.87005 19.6224 4.48111 20.0001 5.1495 20.0001H11.7059C12.6806 20.0001 13.4706 19.21 13.4706 18.2354V12.353V11.7648C13.4706 11.1151 12.9439 10.5883 12.2942 10.5883Z" fill="#527BDD"/>
<path d="M1.70592 4.70588C1.70592 2.75976 3.28921 1.17647 5.23533 1.17647C7.18145 1.17647 8.76474 2.75976 8.76474 4.70588C8.76474 5.72482 8.31678 6.67502 7.58827 7.33212V8.77984C8.12957 8.466 8.60972 8.0451 8.98918 7.54404C9.61196 6.72149 9.94122 5.74008 9.94122 4.70588C9.94122 2.11106 7.83016 0 5.23533 0C2.64051 0 0.529449 2.11106 0.529449 4.70588C0.529449 5.74008 0.858665 6.72149 1.48149 7.54404C1.86094 8.04506 2.3411 8.466 2.88239 8.77984V7.33212C2.15388 6.67502 1.70592 5.72482 1.70592 4.70588Z" fill="#527BDD"/>
<path d="M6.89538 3.03848C6.45111 2.59616 5.86205 2.35303 5.23546 2.35303C5.23189 2.35303 5.22824 2.35303 5.22471 2.35303C3.97542 2.35864 2.94785 3.33938 2.88546 4.58581C2.86817 4.93138 2.92891 5.27224 3.05569 5.58589C3.25918 5.08652 3.62918 4.6722 4.09675 4.41252C4.22922 3.91095 4.69562 3.53193 5.22993 3.5295H5.23538C5.54868 3.5295 5.8433 3.65111 6.06542 3.8722C6.21785 4.02397 6.32346 4.21009 6.37522 4.41322C6.84338 4.67365 7.21362 5.08907 7.4166 5.58977C7.52864 5.31299 7.58828 5.01389 7.58828 4.70597C7.58828 4.0755 7.3422 3.4833 6.89538 3.03848Z" fill="#527BDD"/>
</svg>
