<svg width="20" height="20" viewBox="0 0 20 20" fill="none" xmlns="http://www.w3.org/2000/svg">
<g clip-path="url(#clip0_53_542)">
<path d="M0.890349 3.74143C1.06652 4.43791 1.42789 5.07463 1.93574 5.58244L2.4007 6.04143L6.04773 2.39463L5.58281 1.93561C5.07457 1.42779 4.4382 1.06647 3.74168 0.890295L0.243435 0.00591984C0.176638 -0.010877 0.105935 0.00865421 0.057107 0.0570917C0.00866947 0.10592 -0.0108618 0.176623 0.00593509 0.24342L0.890349 3.74143Z" fill="#527BDD"/>
<path d="M5.00934 8.61621L8.65605 4.96973L6.88168 3.21777L3.23473 6.86449L5.00934 8.61621Z" fill="#527BDD"/>
<path d="M11.3818 15.0293L15.0279 11.3832L17.2134 13.5687L13.5673 17.2148L11.3818 15.0293Z" fill="#527BDD"/>
<path d="M18.0458 14.3979L14.3988 18.0447L15.599 19.245C16.0862 19.7317 16.7339 20.0001 17.4226 20.0001C18.1113 20.0001 18.759 19.7317 19.2461 19.245C20.2513 18.2395 20.2513 16.6036 19.2461 15.5981L18.0458 14.3979Z" fill="#527BDD"/>
<path d="M9.02164 10.7378C9.25051 10.509 9.62152 10.509 9.85031 10.7378L11.8687 12.7561L12.7569 11.8679L11.6048 10.7159C11.3759 10.4871 11.3759 10.1161 11.6048 9.88727C11.8336 9.65848 12.2046 9.6584 12.4335 9.88727L13.5856 11.0393L14.4895 10.1354L12.4711 8.11719C12.2422 7.8884 12.2422 7.51738 12.4711 7.28856C12.6999 7.05977 13.0709 7.05969 13.2998 7.28856L15.3181 9.30684L16.222 8.40301L15.0699 7.25102C14.8411 7.02223 14.8411 6.65125 15.0699 6.42238C15.2987 6.19359 15.6698 6.19352 15.8986 6.42238L17.0507 7.57438L17.9546 6.67055L15.9362 4.65227C15.7073 4.42348 15.7073 4.05246 15.9362 3.82363C16.1651 3.5948 16.5361 3.5948 16.7649 3.82363L18.7832 5.84191L19.6121 5.01172C19.8623 4.76164 20 4.4291 20 4.07543C20 3.72176 19.8622 3.3893 19.6121 3.13918L16.8605 0.387852C16.6104 0.137734 16.2779 0 15.9243 0C15.5706 0 15.238 0.137695 14.9879 0.387813L0.387813 14.9883C0.137734 15.2383 0 15.5709 0 15.9245C0 16.2782 0.137734 16.6106 0.387813 16.8607L3.13945 19.6121C3.38953 19.8622 3.72203 20 4.07574 20C4.42945 20 4.76195 19.8623 5.01203 19.6122L5.84227 18.7821L4.6902 17.6301C4.46137 17.4013 4.46137 17.0303 4.6902 16.8014C4.91902 16.5727 5.29004 16.5727 5.51887 16.8014L6.67094 17.9534L7.5748 17.0496L5.55645 15.0314C5.32762 14.8026 5.32762 14.4316 5.55645 14.2028C5.78527 13.974 6.15629 13.974 6.38512 14.2028L8.40348 16.221L9.30738 15.3171L8.15527 14.1652C7.92645 13.9364 7.92645 13.5654 8.15527 13.3365C8.38414 13.1077 8.75516 13.1077 8.98398 13.3365L10.1361 14.4885L11.04 13.5847L9.0216 11.5664C8.79277 11.3377 8.79277 10.9666 9.02164 10.7378Z" fill="#527BDD"/>
</g>
<defs>
<clipPath id="clip0_53_542">
<rect width="20" height="20" fill="white"/>
</clipPath>
</defs>
</svg>
