<svg width="20" height="20" viewBox="0 0 20 20" fill="none" xmlns="http://www.w3.org/2000/svg">
<g clip-path="url(#clip0_53_527)">
<path d="M17.5 0.625H2.5C1.4375 0.625 0.625 1.4375 0.625 2.5V4.0625H1.875H18.125H19.375V2.5C19.375 1.4375 18.5625 0.625 17.5 0.625ZM3.5625 3.8125C3.25 3.8125 2.9375 3.5 2.9375 3.1875C2.9375 2.875 3.25 2.5625 3.5625 2.5625C3.875 2.5625 4.1875 2.8125 4.1875 3.1875C4.1875 3.5625 3.9375 3.8125 3.5625 3.8125ZM5.75 3.8125C5.375 3.8125 5.125 3.5 5.125 3.1875C5.125 2.875 5.375 2.5625 5.75 2.5625C6.0625 2.5625 6.375 2.8125 6.375 3.1875C6.375 3.5625 6.0625 3.8125 5.75 3.8125ZM7.875 3.8125C7.5625 3.8125 7.25 3.5 7.25 3.1875C7.25 2.875 7.5 2.5625 7.875 2.5625C8.25 2.5625 8.5 2.8125 8.5 3.1875C8.5 3.5625 8.25 3.8125 7.875 3.8125Z" fill="#527BDD"/>
<path d="M1.875 5.3125H0.625V17.5C0.625 18.5625 1.4375 19.375 2.5 19.375H17.5C18.5625 19.375 19.375 18.5625 19.375 17.5V5.3125H18.125H1.875ZM3.8125 12.1875C3.8125 11 4.75 10.0625 5.9375 10.0625H8.1875C8.375 9 9.25 8.25 10.3125 8.25H14.0625C15.25 8.25 16.1875 9.1875 16.1875 10.375V11.3125C16.1875 12.5 15.25 13.4375 14.0625 13.4375H11.8125C11.625 14.5 10.75 15.25 9.6875 15.25H5.9375C4.75 15.25 3.8125 14.3125 3.8125 13.125V12.1875Z" fill="#527BDD"/>
<path d="M5.9375 14H9.6875C10.0625 14 10.375 13.75 10.5 13.4375H10.3125C9.125 13.4375 8.1875 12.5 8.1875 11.3125H5.9375C5.4375 11.3125 5.0625 11.6875 5.0625 12.1875V13.125C5.0625 13.625 5.4375 14 5.9375 14Z" fill="#527BDD"/>
<path d="M10.3125 12.1875H10.5625C10.5625 11.6875 10.1875 11.3125 9.6875 11.3125H9.4375C9.4375 11.8125 9.8125 12.1875 10.3125 12.1875Z" fill="#527BDD"/>
<path d="M11.8125 12.1875H14.0625C14.5625 12.1875 14.9375 11.8125 14.9375 11.3125V10.375C14.9375 9.875 14.5625 9.5 14.0625 9.5H10.3125C9.9375 9.5 9.625 9.75 9.5 10.0625H9.6875C10.875 10.0625 11.8125 11 11.8125 12.1875Z" fill="#527BDD"/>
</g>
<defs>
<clipPath id="clip0_53_527">
<rect width="20" height="20" fill="white"/>
</clipPath>
</defs>
</svg>
