<svg width="20" height="20" viewBox="0 0 20 20" fill="none" xmlns="http://www.w3.org/2000/svg">
<g clip-path="url(#clip0_53_550)">
<path fill-rule="evenodd" clip-rule="evenodd" d="M18.4769 20H1.52313C0.90216 20 0.90216 19.0627 1.52313 19.0627H2.22612V12.5366C2.22612 12.2789 2.43702 12.068 2.69478 12.068H6.24487C6.50263 12.068 6.71353 12.2789 6.71353 12.5366V19.0627H7.73286V10.4628C7.73286 10.2051 7.94375 9.99416 8.20152 9.99416H11.7985C12.0562 9.99416 12.2671 10.2051 12.2671 10.4628V19.0627H13.2747V7.58057C13.2747 7.32281 13.4856 7.11191 13.7434 7.11191H17.3052C17.563 7.11191 17.7739 7.32281 17.7739 7.58057V19.0627H18.4769C19.0861 19.0627 19.0861 20 18.4769 20ZM2.96426 11.5993C2.68306 11.5993 2.46045 11.3416 2.50732 11.0604L2.74165 9.61923L1.69888 8.57647C1.4294 8.30699 1.58172 7.83833 1.95664 7.77975L3.39777 7.58057L4.06561 6.23318C4.22964 5.8934 4.73344 5.88168 4.90919 6.24489L5.54188 7.58057L6.97129 7.77975C7.34621 7.82661 7.49853 8.30699 7.22905 8.57647L6.18629 9.61923L6.42061 11.0604C6.49091 11.447 6.09255 11.7282 5.74106 11.5524L4.47568 10.8846L3.16344 11.5524C3.11657 11.5876 3.04627 11.5993 2.96426 11.5993ZM9.57234 3.63212C9.74809 3.26891 10.2519 3.26891 10.4159 3.63212L11.0486 4.95608L12.5249 5.15526C12.9115 5.21384 13.0638 5.6825 12.7827 5.9637L11.7165 6.99475L11.9859 8.42415C12.0562 8.8108 11.6462 9.10371 11.3064 8.92796L9.99414 8.26012L8.69361 8.92796C8.34211 9.10371 7.94375 8.8108 8.01405 8.42415L8.28353 6.99475L7.21733 5.9637C6.93614 5.69422 7.07674 5.21384 7.4751 5.15526L8.93965 4.95608L9.57234 3.63212ZM15.5126 4.87407L14.2472 5.56534C13.9074 5.7528 13.4974 5.47161 13.5559 5.08496L13.7903 3.60869L12.7592 2.60107C12.4663 2.31988 12.6421 1.86294 13.0053 1.80435L14.4464 1.57002L15.0791 0.25778C15.2548 -0.0819969 15.7469 -0.0937134 15.9227 0.25778L16.5905 1.57002L18.0433 1.80435C18.4183 1.86294 18.5706 2.33159 18.2894 2.60107L17.2583 3.60869L17.4927 5.08496C17.5513 5.45989 17.1529 5.7528 16.8014 5.56534L15.5126 4.87407Z" fill="#527BDD"/>
</g>
<defs>
<clipPath id="clip0_53_550">
<rect width="20" height="20" fill="white"/>
</clipPath>
</defs>
</svg>
