<svg width="20" height="20" viewBox="0 0 20 20" fill="none" xmlns="http://www.w3.org/2000/svg">
<g clip-path="url(#clip0_53_523)">
<path d="M16.1765 0.588379H3.82355C2.03532 0.588379 0.588257 2.04132 0.588257 3.82367V16.1766C0.588257 17.959 2.03532 19.4119 3.82355 19.4119H16.1765C17.9588 19.4119 19.4118 17.959 19.4118 16.1766V3.82367C19.4118 2.04132 17.9588 0.588379 16.1765 0.588379ZM7.64708 2.35308H8.52943C9.01179 2.35308 9.41179 2.7472 9.41179 3.23544C9.41179 3.72367 9.01179 4.11779 8.52943 4.11779H7.64708C7.15885 4.11779 6.76473 3.72367 6.76473 3.23544C6.76473 2.7472 7.15885 2.35308 7.64708 2.35308ZM12.6941 9.52367C12.8471 9.63544 12.9412 9.81191 12.9412 10.0001C12.9412 10.1943 12.8471 10.3707 12.6941 10.4825L8.57649 13.4237C8.47061 13.4943 8.35296 13.5296 8.23532 13.5296C8.1412 13.5296 8.04708 13.5119 7.96473 13.4648C7.77061 13.3649 7.64708 13.1649 7.64708 12.9413V7.05897C7.64708 6.84132 7.77061 6.64132 7.96473 6.54132C8.15885 6.44132 8.39414 6.45308 8.57649 6.5825L12.6941 9.52367ZM4.7059 17.6472H3.82355C3.33532 17.6472 2.9412 17.2531 2.9412 16.7649C2.9412 16.2766 3.33532 15.8825 3.82355 15.8825H4.7059C5.18826 15.8825 5.58826 16.2766 5.58826 16.7649C5.58826 17.2531 5.18826 17.6472 4.7059 17.6472ZM4.7059 4.11779H3.82355C3.33532 4.11779 2.9412 3.72367 2.9412 3.23544C2.9412 2.7472 3.33532 2.35308 3.82355 2.35308H4.7059C5.18826 2.35308 5.58826 2.7472 5.58826 3.23544C5.58826 3.72367 5.18826 4.11779 4.7059 4.11779ZM8.52943 17.6472H7.64708C7.15885 17.6472 6.76473 17.2531 6.76473 16.7649C6.76473 16.2766 7.15885 15.8825 7.64708 15.8825H8.52943C9.01179 15.8825 9.41179 16.2766 9.41179 16.7649C9.41179 17.2531 9.01179 17.6472 8.52943 17.6472ZM12.353 17.6472H11.4706C10.9824 17.6472 10.5883 17.2531 10.5883 16.7649C10.5883 16.2766 10.9824 15.8825 11.4706 15.8825H12.353C12.8353 15.8825 13.2353 16.2766 13.2353 16.7649C13.2353 17.2531 12.8353 17.6472 12.353 17.6472ZM12.353 4.11779H11.4706C10.9824 4.11779 10.5883 3.72367 10.5883 3.23544C10.5883 2.7472 10.9824 2.35308 11.4706 2.35308H12.353C12.8353 2.35308 13.2353 2.7472 13.2353 3.23544C13.2353 3.72367 12.8353 4.11779 12.353 4.11779ZM16.1765 17.6472H15.2941C14.8059 17.6472 14.4118 17.2531 14.4118 16.7649C14.4118 16.2766 14.8059 15.8825 15.2941 15.8825H16.1765C16.6588 15.8825 17.0588 16.2766 17.0588 16.7649C17.0588 17.2531 16.6588 17.6472 16.1765 17.6472ZM16.1765 4.11779H15.2941C14.8059 4.11779 14.4118 3.72367 14.4118 3.23544C14.4118 2.7472 14.8059 2.35308 15.2941 2.35308H16.1765C16.6588 2.35308 17.0588 2.7472 17.0588 3.23544C17.0588 3.72367 16.6588 4.11779 16.1765 4.11779Z" fill="#527BDD"/>
</g>
<defs>
<clipPath id="clip0_53_523">
<rect width="20" height="20" fill="white"/>
</clipPath>
</defs>
</svg>
