<svg width="20" height="20" viewBox="0 0 20 20" fill="none" xmlns="http://www.w3.org/2000/svg">
<path d="M0 16.4453V17.0312C0 18.0005 0.788555 18.7891 1.75781 18.7891H18.2422C19.2114 18.7891 20 18.0005 20 17.0312V16.4453H0Z" fill="#527BDD"/>
<path d="M19.0877 13.3203H0.912308L0.179886 15.2734H19.8201L19.0877 13.3203Z" fill="#527BDD"/>
<path d="M18.8281 2.96875C18.8281 1.99949 18.0396 1.21094 17.0703 1.21094H2.92969C1.96043 1.21094 1.17188 1.99949 1.17188 2.96875V12.1484H18.8281V2.96875ZM7.21801 7.87395C7.08898 8.5966 6.39879 9.12109 5.57691 9.12109C4.91875 9.12109 4.27578 8.84516 3.85691 8.38297C3.67582 8.18316 3.69102 7.87434 3.89086 7.69328C4.0907 7.51219 4.39949 7.52742 4.58055 7.72723C4.81734 7.98852 5.18981 8.14457 5.57688 8.14457C5.95293 8.14457 6.21777 7.91973 6.2566 7.70234C6.3082 7.41344 5.91695 7.2359 5.74633 7.17297C5.14184 6.95 4.60508 6.71105 4.58254 6.70102C4.55902 6.69051 4.53637 6.6782 4.5148 6.66414C4.10348 6.39602 3.89156 5.9257 3.96172 5.43684C4.03652 4.91582 4.41746 4.49137 4.95594 4.32918C5.95203 4.0291 6.8627 4.55285 7.05148 4.90598C7.17859 5.14379 7.08883 5.43965 6.85102 5.5668C6.63605 5.68168 6.37375 5.61941 6.23141 5.43082C6.13309 5.34754 5.73176 5.11543 5.23766 5.26426C4.98813 5.33941 4.93828 5.50703 4.92844 5.57562C4.92137 5.62492 4.91781 5.7432 5.02332 5.82812C5.16023 5.88809 5.60578 6.08031 6.0843 6.25684C7.06828 6.61965 7.31512 7.33012 7.21801 7.87395ZM10.1157 6.19141C10.3853 6.19141 10.6039 6.41 10.6039 6.67969C10.6039 6.94938 10.3853 7.16797 10.1157 7.16797H9.07938V8.14453H10.237C10.5067 8.14453 10.7253 8.36316 10.7253 8.63281C10.7253 8.90246 10.5067 9.12109 10.237 9.12109H8.59109C8.32145 9.12109 8.10281 8.90246 8.10281 8.63281V4.72656C8.10281 4.45691 8.32145 4.23828 8.59109 4.23828H10.237C10.5067 4.23828 10.7253 4.45691 10.7253 4.72656C10.7253 4.99621 10.5067 5.21484 10.237 5.21484H9.07938V6.19141H10.1157ZM13.8281 9.12109C12.4819 9.12109 11.3867 8.02586 11.3867 6.67969C11.3867 5.33352 12.4819 4.23828 13.8281 4.23828C15.1743 4.23828 16.2695 5.33352 16.2695 6.67969C16.2695 8.02586 15.1743 9.12109 13.8281 9.12109Z" fill="#527BDD"/>
<path d="M13.8281 8.14453C14.6371 8.14453 15.293 7.4887 15.293 6.67969C15.293 5.87068 14.6371 5.21484 13.8281 5.21484C13.0191 5.21484 12.3633 5.87068 12.3633 6.67969C12.3633 7.4887 13.0191 8.14453 13.8281 8.14453Z" fill="#527BDD"/>
</svg>
