<svg width="20" height="20" viewBox="0 0 20 20" fill="none" xmlns="http://www.w3.org/2000/svg">
<path d="M17.2727 0H2.72727C2.00396 0 1.31026 0.287337 0.7988 0.7988C0.287337 1.31026 0 2.00396 0 2.72727L0 17.2727C0 17.996 0.287337 18.6897 0.7988 19.2012C1.31026 19.7127 2.00396 20 2.72727 20H17.2727C17.996 20 18.6897 19.7127 19.2012 19.2012C19.7127 18.6897 20 17.996 20 17.2727V2.72727C20 2.00396 19.7127 1.31026 19.2012 0.7988C18.6897 0.287337 17.996 0 17.2727 0ZM13.1682 8.81705L12.967 10.558C12.9589 10.6375 12.9218 10.7113 12.8626 10.7652C12.8035 10.8191 12.7266 10.8493 12.6466 10.85H10.8284L10.8193 16.0148C10.8199 16.076 10.7964 16.135 10.7539 16.179C10.7114 16.223 10.6532 16.2485 10.592 16.25H8.75C8.71937 16.25 8.68906 16.2439 8.66087 16.2319C8.63269 16.2199 8.60722 16.2023 8.58599 16.1803C8.56476 16.1582 8.54822 16.132 8.53735 16.1034C8.52647 16.0748 8.5215 16.0442 8.52273 16.0136V10.85H7.15909C7.11626 10.8496 7.07394 10.8407 7.03454 10.8239C6.99514 10.8071 6.95944 10.7827 6.92947 10.7521C6.8995 10.7215 6.87586 10.6853 6.85988 10.6455C6.8439 10.6058 6.83591 10.5633 6.83636 10.5205L6.82955 8.77841C6.82894 8.73543 6.83682 8.69275 6.85271 8.65282C6.8686 8.61288 6.89221 8.57646 6.92218 8.54565C6.95215 8.51484 6.98789 8.49023 7.02737 8.47323C7.06685 8.45624 7.10929 8.44718 7.15227 8.44659H8.52273V6.76477C8.52273 4.8125 9.68182 3.75 11.3818 3.75H12.775C12.8181 3.75044 12.8606 3.75939 12.9003 3.77632C12.9399 3.79325 12.9757 3.81784 13.0058 3.84866C13.0359 3.87949 13.0596 3.91596 13.0756 3.95597C13.0916 3.99598 13.0995 4.03874 13.0989 4.08182V5.54886C13.0995 5.59194 13.0916 5.63471 13.0756 5.67472C13.0596 5.71473 13.0359 5.75119 13.0058 5.78202C12.9757 5.81285 12.9399 5.83743 12.9003 5.85436C12.8606 5.87129 12.8181 5.88024 12.775 5.88068H11.9205C10.9966 5.88068 10.817 6.33523 10.817 6.99091V8.44659H12.8477C12.894 8.44733 12.9395 8.45782 12.9814 8.47738C13.0233 8.49695 13.0606 8.52514 13.0909 8.56011C13.1211 8.59508 13.1436 8.63604 13.157 8.68032C13.1703 8.7246 13.1741 8.77119 13.1682 8.81705Z" fill="#527BDD"/>
</svg>
