<svg width="18" height="19" viewBox="0 0 18 19" fill="none" xmlns="http://www.w3.org/2000/svg">
<g clip-path="url(#clip0_263_616)">
<path d="M18.0001 3.81484V3.33996C17.9986 2.0289 16.992 0.966409 15.7499 0.964844H2.24995C1.00789 0.966409 0.00148315 2.0289 0 3.33996V3.81484H18.0001Z" fill="#527BDD"/>
<path d="M9.45 14.2649C9.45 14.5272 9.24846 14.7399 8.99995 14.7399C8.75144 14.7399 8.55006 14.5272 8.55006 14.2649C8.55006 14.0025 8.75144 13.7898 8.99995 13.7898C9.24846 13.7898 9.45 14.0025 9.45 14.2649Z" fill="#527BDD"/>
<path d="M0 4.76489V15.6898C0.00131836 17.0009 1.00789 18.0634 2.24995 18.0648H15.7499C16.9922 18.0634 17.9987 17.0009 18.0001 15.6898V4.76489H0ZM8.99995 15.6898C8.34307 15.6916 7.78079 15.1927 7.66939 14.5092C7.55815 13.8258 7.93026 13.1573 8.55006 12.9273V11.4148C8.55006 11.1525 8.75143 10.9398 8.99995 10.9398C9.24846 10.9398 9.45 11.1525 9.45 11.4148V12.9273C10.0698 13.1573 10.4419 13.8258 10.3305 14.5092C10.2193 15.1927 9.65698 15.6916 8.99995 15.6898ZM14.3999 13.7898H13.5C13.2515 13.7898 13.0499 13.5772 13.0499 13.3149C13.0499 13.0526 13.2515 12.8398 13.5 12.8398H13.9298C13.8349 11.7878 13.4377 10.7916 12.7912 9.98462L12.5002 10.2918C12.3237 10.4725 12.0426 10.4703 11.8687 10.2868C11.6948 10.1033 11.6927 9.80649 11.8639 9.62019L12.1548 9.31317C11.3877 8.63929 10.444 8.22824 9.45 8.13518V8.56483C9.45 8.82715 9.24846 9.03989 8.99995 9.03989C8.75143 9.03989 8.55006 8.82715 8.55006 8.56483V8.13518C7.55585 8.22824 6.6124 8.63929 5.84528 9.31317L6.13614 9.62019C6.25265 9.73952 6.29929 9.91591 6.25809 10.0817C6.21672 10.2475 6.09412 10.377 5.93707 10.4205C5.78002 10.464 5.61292 10.4148 5.4997 10.2918L5.20867 9.98462C4.56235 10.7916 4.16503 11.7878 4.07027 12.8398H4.50005C4.74857 12.8398 4.94994 13.0526 4.94994 13.3149C4.94994 13.5772 4.74857 13.7898 4.50005 13.7898H3.59995C3.48063 13.79 3.3661 13.7399 3.28173 13.6508C3.19735 13.5617 3.14989 13.4408 3.15005 13.3149C3.15005 9.90442 5.76914 7.13983 8.99995 7.13983C12.2309 7.13983 14.85 9.90442 14.85 13.3149C14.85 13.4408 14.8027 13.5617 14.7183 13.6508C14.6338 13.7399 14.5194 13.79 14.3999 13.7898Z" fill="#527BDD"/>
</g>
<defs>
<clipPath id="clip0_263_616">
<rect width="18" height="19" fill="white"/>
</clipPath>
</defs>
</svg>
