<svg width="19" height="20" viewBox="0 0 19 20" fill="none" xmlns="http://www.w3.org/2000/svg">
<path d="M18.6148 10.9302L16.8285 8.25074C16.7324 3.68465 12.9881 0 8.39948 0C-0.0792748 0.173477 -2.6347 10.4659 3.02709 14.9268L1.87104 19.2631C1.77201 19.6346 2.05237 20 2.43721 20H9.34084C9.60971 20 9.84409 19.817 9.90928 19.5562L10.4317 17.4666L12.688 18.2186C13.8151 18.5942 15.0379 17.9829 15.4137 16.8558L16.6865 13.0371C17.4519 12.8442 18.3068 12.2064 18.6514 11.5172C18.7454 11.3292 18.7315 11.1052 18.6148 10.9302ZM12.4372 8.11719C12.4084 8.89379 11.2939 8.8932 11.2653 8.11719V7.54195L9.20076 10.6388C9.10342 10.7848 8.94569 10.8796 8.771 10.8968C8.59604 10.9142 8.42303 10.8522 8.29893 10.7281L6.29389 8.72305L4.80752 10.9526C4.68655 11.1341 4.34233 11.3466 3.99498 11.1151C3.72569 10.9356 3.65295 10.5718 3.83248 10.3026L5.7153 7.47836C5.81264 7.3323 5.97037 7.23758 6.14506 7.22031C6.31987 7.20285 6.49299 7.26492 6.61713 7.38906L8.62217 9.3941L10.2903 6.89191L9.75916 7.1132C9.46041 7.23762 9.11737 7.09641 8.99295 6.7977C8.86846 6.49898 9.00975 6.15594 9.30842 6.03148L11.6258 5.0659C11.8067 4.99051 12.0132 5.01055 12.1762 5.11922C12.3392 5.22789 12.4372 5.41086 12.4372 5.60676V8.11719H12.4372Z" fill="#527BDD"/>
</svg>
