<svg width="19" height="20" viewBox="0 0 19 20" fill="none" xmlns="http://www.w3.org/2000/svg">
<g clip-path="url(#clip0_53_570)">
<path d="M4.11257 4.8999C3.80516 4.8999 3.55593 4.65068 3.55593 4.34326C3.55593 4.03585 3.80516 3.78662 4.11257 3.78662H8.9221V1.28174C8.9221 0.974324 8.67287 0.725098 8.36546 0.725098H0.556641C0.249227 0.725098 0 0.974324 0 1.28174V9.11222C0 9.41964 0.249227 9.66887 0.556641 9.66887H8.36546C8.67287 9.66887 8.9221 9.41964 8.9221 9.11222V4.8999H4.11257Z" fill="#527BDD"/>
<path d="M18.4434 0.725098H10.6346C10.3271 0.725098 10.0779 0.974324 10.0779 1.28174V3.78662H12.2496C12.17 3.62546 12.1698 3.42885 12.2664 3.26152C12.42 2.9953 12.7605 2.90401 13.0267 3.05779L14.4183 3.86121C14.5906 3.96063 14.6967 4.14439 14.6967 4.34326C14.6967 4.54213 14.5906 4.7259 14.4183 4.82531L13.0267 5.62873C12.9391 5.67935 12.8434 5.70339 12.7489 5.70339C12.5565 5.70343 12.3695 5.60357 12.2664 5.425C12.1698 5.25767 12.17 5.06107 12.2496 4.8999H10.0779V8.89825L12.1493 6.82684C12.3667 6.60946 12.7191 6.60946 12.9365 6.82684C13.1539 7.04423 13.1539 7.39666 12.9365 7.61405L10.8817 9.66883H18.4434C18.7508 9.66883 19 9.4196 19 9.11219V1.28174C19 0.974324 18.7508 0.725098 18.4434 0.725098Z" fill="#527BDD"/>
<path d="M18.4434 10.8184H10.5974C10.29 10.8184 10.0408 11.0676 10.0408 11.375V15.5873H14.3277C14.2482 15.4262 14.2479 15.2296 14.3445 15.0622C14.4982 14.796 14.8386 14.7047 15.1049 14.8585L16.4965 15.6619C16.6687 15.7613 16.7748 15.9451 16.7748 16.144C16.7748 16.3428 16.6687 16.5266 16.4965 16.626L15.1049 17.4294C15.0172 17.48 14.9215 17.5041 14.8271 17.5041C14.6346 17.5041 14.4476 17.4043 14.3445 17.2257C14.2479 17.0584 14.2482 16.8618 14.3277 16.7006H10.0408V19.1684C10.0408 19.4758 10.29 19.725 10.5974 19.725H18.4434C18.7508 19.725 19 19.4758 19 19.1684V11.375C19 11.0676 18.7508 10.8184 18.4434 10.8184Z" fill="#527BDD"/>
<path d="M6.1907 16.7006C5.88328 16.7006 5.63406 16.4513 5.63406 16.1439C5.63406 15.8365 5.88328 15.5873 6.1907 15.5873H8.95921V11.5913L7.18282 13.3677C7.35304 13.4254 7.49224 13.5642 7.54226 13.7509C7.62182 14.0478 7.44563 14.353 7.14868 14.4326L5.59654 14.8485C5.54893 14.8613 5.50054 14.8675 5.45252 14.8675C5.30679 14.8675 5.16466 14.8102 5.0589 14.7045C4.91825 14.5638 4.86333 14.3589 4.91484 14.1668L5.33076 12.6146C5.41029 12.3177 5.71544 12.1414 6.0125 12.2211C6.19916 12.2711 6.33795 12.4103 6.39569 12.5805L8.15783 10.8184H0.556641C0.249227 10.8184 0 11.0676 0 11.375V19.1683C0 19.4758 0.249227 19.725 0.556641 19.725H8.40257C8.70998 19.725 8.95921 19.4758 8.95921 19.1683V16.7006H6.1907Z" fill="#527BDD"/>
</g>
<defs>
<clipPath id="clip0_53_570">
<rect width="19" height="19" fill="white" transform="translate(0 0.725098)"/>
</clipPath>
</defs>
</svg>
