<svg width="23" height="23" viewBox="0 0 23 23" fill="none" xmlns="http://www.w3.org/2000/svg">
<path fill-rule="evenodd" clip-rule="evenodd" d="M4 11.4997C4 9.77028 5.50252 8.36835 7.35606 8.36835H10.7122V14.6313H7.35606C5.50255 14.6313 4 13.2292 4 11.4997ZM7.35606 7.2631H10.7122V1H7.35606C5.50256 1 4 2.40204 4 4.13154C4 5.86105 5.50255 7.2631 7.35606 7.2631ZM18.6087 4.13154C18.6087 5.86105 17.1062 7.2631 15.2527 7.2631H11.8967V1H15.2527C17.1062 1 18.6087 2.40204 18.6087 4.13154ZM11.8967 11.4997C11.8967 9.77028 13.3992 8.36835 15.2527 8.36835C17.1062 8.36835 18.6087 9.77028 18.6087 11.4997C18.6087 13.2292 17.1062 14.6313 15.2527 14.6313C13.3992 14.6313 11.8967 13.2292 11.8967 11.4997ZM7.35606 15.7365H10.7122V18.8684C10.7122 20.5979 9.20956 22 7.35606 22C5.50256 22 4 20.5979 4 18.8684C4 17.1389 5.50264 15.7365 7.35606 15.7365Z" fill="#527BDD"/>
</svg>
